/* XPM */
static char *result[] = {
/* columns rows colors chars-per-pixel */
"64 64 238 2 ",
"   c #3F2F3F",
".  c #7A111D",
"X  c #75152D",
"o  c #7D1737",
"O  c #4B2C3A",
"+  c #7A2923",
"@  c #614729",
"#  c #263847",
"$  c #3B3144",
"%  c #2A3B58",
"&  c #363757",
"*  c #322953",
"=  c #343568",
"-  c #34346F",
";  c #571D52",
":  c #5B1C4A",
">  c #771749",
",  c #731D54",
"<  c #7A1757",
"1  c #661E51",
"2  c #4B2A4C",
"3  c #572843",
"4  c #482654",
"5  c #553251",
"6  c #692547",
"7  c #663546",
"8  c #7D2355",
"9  c #6E2550",
"0  c #7C1C63",
"q  c #4D2A66",
"w  c #483969",
"e  c #593462",
"r  c #4F2A70",
"t  c #642877",
"y  c #653C79",
"u  c #702F6B",
"i  c #2D435B",
"p  c #324466",
"a  c #384579",
"s  c #2F5170",
"d  c #524B73",
"f  c #6E5377",
"g  c #7F616A",
"h  c #65564B",
"j  c #850D3E",
"k  c #86292A",
"l  c #B12D38",
"z  c #AE0336",
"x  c #CF173F",
"c  c #D61737",
"v  c #D71233",
"b  c #E31C2B",
"n  c #D1333B",
"m  c #E92428",
"M  c #FB383C",
"N  c #EA3632",
"B  c #8E5F1C",
"V  c #A14C1C",
"C  c #B5462D",
"Z  c #B66B29",
"A  c #A26522",
"S  c #FB541E",
"D  c #C86C15",
"F  c #F9671C",
"G  c #F67510",
"H  c #C1582F",
"J  c #FB5627",
"K  c #FB4639",
"L  c #F1532E",
"P  c #D26A2D",
"I  c #FB6238",
"U  c #F16E2A",
"Y  c #9A144B",
"T  c #9A0956",
"R  c #8A1451",
"E  c #96175A",
"W  c #8F0D4C",
"Q  c #B6034A",
"!  c #A8164D",
"~  c #B6184B",
"^  c #B70A56",
"/  c #AA1658",
"(  c #B51459",
")  c #A60A53",
"_  c #882445",
"`  c #982848",
"'  c #862759",
"]  c #883358",
"[  c #923350",
"{  c #A92645",
"}  c #B6264B",
"|  c #B33443",
" . c #B93A56",
".. c #B42356",
"X. c #891A6C",
"o. c #97186B",
"O. c #931875",
"+. c #A8136A",
"@. c #882367",
"#. c #9B2868",
"$. c #9A3C65",
"%. c #862773",
"&. c #8D2D71",
"*. c #AD2A66",
"=. c #B42164",
"-. c #A63378",
";. c #B03469",
":. c #C60849",
">. c #D80A48",
",. c #C8184E",
"<. c #DA154A",
"1. c #C80654",
"2. c #D90554",
"3. c #D01958",
"4. c #E61A48",
"5. c #F21D44",
"6. c #E70C57",
"7. c #EA1B57",
"8. c #D63547",
"9. c #D0284E",
"0. c #E6274E",
"q. c #FB3B41",
"w. c #F73446",
"e. c #F72856",
"r. c #ED364F",
"t. c #CF1369",
"y. c #CC1C73",
"u. c #EE1166",
"i. c #D82962",
"p. c #CF3462",
"a. c #894C4E",
"s. c #A7554F",
"d. c #9D6D5D",
"f. c #885171",
"g. c #B74A69",
"h. c #927B7A",
"j. c #A87749",
"k. c #D24350",
"l. c #E54745",
"z. c #F75248",
"x. c #E97244",
"c. c #D5496C",
"v. c #FA497A",
"b. c #7A8B7B",
"n. c #BD983F",
"m. c #DA860C",
"M. c #FB890B",
"N. c #F89605",
"B. c #F18C13",
"V. c #FDA703",
"C. c #FEBF04",
"Z. c #CB8325",
"A. c #F48129",
"S. c #DCB42D",
"D. c #B68C4E",
"F. c #B69D67",
"G. c #CDA24E",
"H. c #3D38A2",
"J. c #53398F",
"K. c #623781",
"L. c #7F3D88",
"P. c #344988",
"I. c #33548A",
"U. c #307397",
"Y. c #3962A2",
"T. c #3277A3",
"R. c #377CBC",
"E. c #2A52A6",
"W. c #594785",
"Q. c #5B588C",
"!. c #444A97",
"~. c #53568C",
"^. c #714F8F",
"/. c #486A95",
"(. c #677299",
"). c #4745A5",
"_. c #4557A9",
"`. c #4854B5",
"'. c #6A5BA6",
"]. c #4A66B4",
"[. c #5076B1",
"{. c #3F5EC7",
"}. c #3D66C6",
"|. c #3979D9",
" X c #366FD1",
".X c #417AC8",
"XX c #4A6FC5",
"oX c #4B56C2",
"OX c #8E3087",
"+X c #BA3580",
"@X c #9D478C",
"#X c #A55195",
"$X c #82629F",
"%X c #A86C94",
"&X c #1290B7",
"*X c #2F8CB3",
"=X c #2BA6B5",
"-X c #66879D",
";X c #4782AD",
":X c #518FB7",
">X c #2C98C6",
",X c #3390D0",
"<X c #11BAC8",
"1X c #23B7CD",
"2X c #2DADD2",
"3X c #389BED",
"4X c #38B6EA",
"5X c #519ACA",
"6X c #4386D3",
"7X c #4495D8",
"8X c #4195C9",
"9X c #7A8EC2",
"0X c #4EACD7",
"qX c #73A7CE",
"wX c #17D6D7",
"eX c #0DD3CF",
"rX c #2CC7DE",
"tX c #06F8D8",
"yX c #13EADA",
"uX c #1CDDF2",
"iX c #27D8EA",
"pX c #3ECCF6",
"aX c #32CEE9",
"sX c #19E8E9",
"dX c #03FDE2",
"fX c #13F4E6",
"gX c #1EEEF0",
"hX c #22E3EA",
"jX c #27F1F4",
"kX c #32E8F6",
"lX c #42DBF6",
"zX c #49C9E9",
"xX c #51D2DC",
"cX c #80838F",
"vX c #AC968F",
"bX c #92A993",
"nX c #9284A2",
"mX c None",
/* pixels */
"mXmXmXmXmXmXmXmXmXmXmXmXmXmXmXmXmXmXmXmXmXmXmXmXmXmXmXmXmXmXmXmXmXmXmXmXmXmXmXmXmXmXmXmXmXmXmXmXmXmXmXmXmXmXmXmXmXmXmXmXmXmXmXmX",
"mXmXmXmXmXmXmXmXmXmXmXmXmXmXmXmXmXmXmXmXmXmXmXmXmXmXmXmXmXmXmXmXmXmXmXmXmXmXmXmXmXmXmXmXmXmXmXmXmXmXmXmXmXmXmXmXmXmXmXmXmXmXmXmX",
"mXmXmXmXmXmXmXmXmXmXmXmXmXmXmXmXmXmXmXmXmXmXmXmXmXmXmXmXmXmXmXmXmXmXmXmXmXmXmXmXmXmXmXmXmXmXmXmXmXmXmXmXmXmXmXmXmXmXmXmXmXmXmXmX",
"mXmXmXmXmXmXmXmXmXmXmXmXmXmXmXmXmXmXmXmXmXmXmXmXmXmXmXmXmXmXmXmXmXmXmXmXmXmXmXmXmXmXmXmXmXmXmXmXmXmXmXmXmXmXmXmXmXmXmXmXmXmXmXmX",
"mXmXmXmXmXmXmXmXmXmXmXmXmXmXmXmXmXmXmXmXmXmXmXmXmXmXmXmXmXmXmXmXmXmXmXmXmXmXmXmXmXmXmXmXmXmXmXmXmXmXmXmXmXmXmXmXmXmXmXmXmXmXmXmX",
"mXmXmXmXmXmXmXmXmXmXmXmXmXmXmXmXmXmXmXmXmXmXmXmXmXmXmXmXmXmXmXmXmXmXmXmXmXmXmXmXmXmXmXmXmXmXmXmXmXmXmXmXmXmXmXmXmXmXmXmXmXmXmXmX",
"mXmXmXmXmXmXmXmXmXmXmXmXmXmXmXmXmXmXmXmXmXmXmXmXmXmXmXmXmXmXmXmXmXmXmXmXmXmXmXmXmXmXmXmXmXmXmXmXmXmXmXmXmXmXmXmXmXmXmXmXmXmXmXmX",
"mXmXmXmXmXmXmXmXmXmXmXmXmXmXmXmXmXmXmXmXmXmXmXmXmXmXmXmXmXmXmXmXmXmXmXmXmXmXmXmXmXmXmXmXmXmXmXmXmXmXmXmXmXmXmXmXmXmXmXmXmXmXmXmX",
"mXmXmXmXmXmXmXmXmXmXmXmXmXmXmXmXmXmXmXmXmXmXmXmXmXmXmXmXmXmXmXmXmXmXmXmXmXmXmXmXmXmXmXmXmXmXmXmXmXmXmXmXmXmXmXmXmXmXmXmXmXmXmXmX",
"mXmXmXmXmXmXmXmXmXmXmXmXmXmXmXmXmXmXmXmXmXmXmXmXmXmXmXmXmXmXmXmXmXmXmXmXmXmXmXmXmXmXmXmXmXmXmXmXmXmXmXmXmXmXmXmXmXmXmXmXmXmXmXmX",
"mXmXmXmXmXmXmXmXmXmXmXmXmXmXmXmXmXmXmXmXmXmXmXmXmXmXmXmXmXmXmXmXmXmXmXmXmXmXmXmXmXmXmXmXmXmXmXmXmXmXmXmXmXmXmXmXmXmXmXmXmXmXmXmX",
"mXmXmXmXmXmXmXmXmXmXmXmXmXmXmXmXmXmXmXmXmXmXmXmXmXmXmXmXmXmXmXmXmXmXmXmXmXmXmXmXmXmXmXmXmXmXmXmXmXmXmXmXmXmXmXmXmXmXmXmXmXmXmXmX",
"mXmXmXmXmXmXmXmXmXmXmXmXmXmXmXmXmXmXmXmXmXmXmXmXmXmXmXmXmXmXmXmXmXmXmXmXmXmXmXmXmXmXmXmXmXmXmXmXmXmXmXmXmXmXmXmXmXmXmXmXmXmXmXmX",
"mXmXmXmXmXmXmXmXmXmXmXmXmXmXmXmXmXmXmXmXmXmXmXmXmXmXmXmXmXmXmXmXmXmXmXmXmXmXmXmXmXmXmXmXmXmXmXmXmXmXmXmXmXmXmXmXmXmXmXmXmXmXmXmX",
"mXmXmXmXmXmXmXmXmXmXmXmX( n C mXmXmXmXmXmXmXmXmXmXmXmXmXmXmXmXmXmXmXmXmXmXmXmXmXmXmXmXmXmXmXmXmXmXmXmXmXmXmXmXmXmXmXmX@XL G.mXmX",
"mXmXmXmXmXmXmXmXmXmXmX,.U G mXmXmXmXmXmXmXmXmXmXmXmXmXmXmXmXM.V.V.V.mXmXmXmXmXmXmXmXmXmXmXmXmXmXmXmXmXmXmXmXmXmXmXmX;.n U vXmXmX",
"mXmXmXmXmXmXmXmXmXmX..I N.D mXmXmXmXmXmXmXmXmXmXmXmXmXmXmXB.G C.V.mXmXN.m.D V k X X k C mXmXmXmXmXmXmXmXmXmXmXmXmX,.9.J x.%XmXmX",
"mXmXmXmXmXmXmXmXmX{ ~ l | ` ' 1 r r mXmXmXmXmXmXmXmXmXmXmXL B.B.N.N.N.N.m.Z B @ O O O l mXmXmXmXmXmXmXmXmXmXmXmX| 0.m U l.^.mXmX",
"mXmXmXmXmXmXmXmX~ { l.K 8. .$.] ] [ < mXmXmXmXmXmXmXmXmX8.H H D B.V.V.N.m.Z B 7 4 4 1 mXmXmXmXmXmXmXmXmXmXmXmX} r.<.J K -.mXmXmX",
"mXmXmXmXmXmXmX8 7 | _ 3 & mXmXmX_ + s.+.mXmXmXmXmXOXO.t y g j.P B.B.G G mXmXmXmXmXmXmXmXmXmXmXmXmXmXmXmXmXmX` k.4.m z.i.mXmXmXmX",
"mXmXmXmXmXE w 5 6 h C mXmXmXmXmXmX. C ) mXmXmXmX`.H.).!.f h Z P mXmXmXmXmXmXmXmXmXmXmXmXmXmXmXmXmXmXmXmXmX_ p.` >.l.r.%.mXmXmXmX",
"mXmXmXmX@.& 4 6 f.d.mXmXmXmXmXmXmXo | ) mXmXmXmXoXoX!.y D.S.U mXmXmXmXmXmXmXmXmXmXmXmXmXmXmXmXmXmXmXmXmX_ [ e ( x k.*.mXmXmXmXmX",
"mXmXmXu w 4 o f (.n mXmXmXmXmXmXmXj } :.mXmXmXmXXXmX` h.G.n.mXmXmXmXmXmXmXmXmXmXmXmXmXmXmXmXmXmXmXmXmX, ] e w >.g.9.K.mXmXmXmXmX",
"mXmXmX~.w mXT '.f mXmXmXmXmXmXmX> ) ^ 2.mXmXmXmXmXmX$.bXF.s.mXmXmXmXmXmXmXmXmXmXmXmXmXmXmXmXmXmXmXmXmX7 e % 3.,.;.X.mXmXmXmXmXmX",
"mXmXmXd mXmXy ].! mXmXmXmXmXmX; T T :.mXmXmXmXmXmXmX-XvXb.a.mXmXmXmXmXmXmXmXmXmXmXmXmXmXmXmXmXmXmXmX3 d % mX6.#.=.J.mXmXmXmXmXmX",
"mXmXmXmXmXW _.Q.z mXmXmXmXmX4 T R ^ mXmXmXmXmXmXmX#.xXnXd mXmX6.Q ) T / mXmXmXmXmXmXmXmXmXmXmXmXmX2 p # mXmX>.OXo.Y.mXmXmXmXmXmX",
"mXmXmXmXmXt _.' mXmXmXmX% ; W W o.g.mXmXmXmXmXmXmX(.qX;X%.e.e.7.1.Q Q 1.mXmXmXmXmXmXmXmXmXmXmXmX2 p # mXmXu.( O.K.mXmXmXmXmXmXmX",
"mXmXmXmX0 !.!.W mXmX* 4 > > R (.mXmXmXmXmXmXmXmX=.4X9XU.g.i.e.e.7.6.6.2.1.mXmXmXmXmXmXmXmXmXmXe p % $ mXmX6.O.+.!.mXmXmXmXmXmXmX",
"mX0.c x Y ' R > 1 : 1 6 > d 0XmXmXmXmXmXmXmXmXmX^.lXXXI.f.i.v.mXmXmXmXmXmXmXmXmXmXmXmXmXmXmXmXi s # mXmXmX^ @.+.&.t.y.+X#XqXmXmX",
"mX{ 6 2   $     O 3 1 Q.2XmXmXmXmXmXmXmXmXmXmXmX5X0X>XP.mXmXmXmXmXmXmXmXmXmXmXmXmXmXmXmXmXmXs I.& ; , < E ~ ~ ! ! _ _ 9 e d ;XmX",
"mXmX^ W > > > < 0 ^.:XmXmXmXmXmXmXmXmXmXmXmXmX$XiX5X&XmXmXmXmXmXmXmXmXmXmXmXmXmXmXmXmXmXmXa._ Y / 1.>.<.,.,.9.*.;.-.OXOXL.^.[.mX",
"mXmXmXK.< +.c 7.^ mXmXmXmXmXmXmXmXmXmXmXmXmXmX5XkX>X&XmXmXmXmXmXmXmXmXmXmXmXmXmXmXmXr.8.9.4.5.5.5.w.mXmX3.( =.f.mXmXmXmXmXmXmXmX",
"mXmXmX- 2 o.G K 6.^ mXmXmXmXmXmXmXmXmXmXmXmXmXiXrXeX<XmXmXmXmXmXmXmXmXmXmXmXmXq.z.M M M M g.] mXmXmXmXmXQ ( 9.g.mXmXmXmXmXmXmXmX",
"mXmXE.& > @.mXL p.( mXmXmXmXmXmXmXmXmXmXmXmXzXgX1XeXmXmXmXmXmXmXmXmXmXmXmXmXq.q.K K w.$X=XU.mXmXmXmXmXmXQ ~ 8.s.mXmXmXmXmXmXmXmX",
"mXmXH.* T mXmXn.g.#X< mXmXmXmXmXmXmXmXmXmXmXkXgXwXtXmXmXmXmXmXmXmXmXmXmXmXM q.x.z.mXmXeX<Xi mXmXmXmXmXmXQ :.r.P mXmXmXmXmXmXmXmX",
"mXmX- 2 ( mXmXmXh.$X'.2 mXmXmXmXmXmXmXmXmXmXjXjX<XdXmXmXmXmXmXjXpX4X6X_.mXa.bXc.mXmXsXwXU.mXmXmXmXmXmXmXQ >.z.U mXmXmXmXmXmXmXmX",
"mX!.r > +.mXmXmXmX[.`.[.% mXmXmXmXmXmXmXmXmXjXgXeXsXsXsXfXdXtXeX2X*X`.I.a mXmXmXmXmXsXwX= mXmXmXmXmXmXmXQ v z.F mXmXmXmXmXmXmXmX",
"mXJ.X./ o.mXmXmXmXmX.XoX|.s i mXmXmXmXmXmX[.:X(.Q.[.=XwXtXtXtXwX1X>X}.`.J.- mXmXmXsXfXT.mXmXmXmXmXmXmXmXQ b I F mXmXmXmXmXmXmXmX",
"mXX./ t.O.mXmXmXmXmXmX|.{.|.T.p s mXmXmXmXt W.].*X1XwXyXtXtXtXfXsXhXaX2X XP.mXmXmXsXsX= mXmXmXmXmXmXmXmX:.b I J mXmXmXmXmXmXmXmX",
"mXmXu.u.mXmXmXmXmXmXmXmX3X|. X3X*Xa !.mX>X7X6X7XzXiXmXmXmXmXmXmXmXmXmXmXmXmXmXmXuXhX*XmXmXmXmXmXmXmXmXmXc b F J mXmXmXmXmXmXmXmX",
"mXmXmXmXmXmXmXmXmXmXmXmXmXmX3X.X|.2X=X/.,X,X/.~.mXmXmXmXmXmXmXmXmXmXmXmXmXmXmXmX4XgXa mXmXmXmXmXmXmXmXmXb m U K mXmXmXmXmXmXmXmX",
"mXmXmXmXmXmXmXmXmXmXmXmXmXmXmXlX4X6X}.,X2X>X*Xs mXmXmXmXmXmXmXmXmXmXmXmXmXmXmXmXmX1XmXmXmXmXmXmXmXmXmXmXN N M.q.mXmXmXmXmXmXmXmX",
"mXmXmXmXmXmXmXmXmXmXmXmXmXmXmXmXmXlXpX,X*XY.a i mXmXmXmXmXmXmXmXmXmXmXmXmXmXmXmXmXmXmXmXmXmXmXmXmXmXmXmXJ L M.w.mXmXmXmXmXmXmXmX",
"mXmXmXmXmXmXmXmXmXmXmXmXmXmXmXmXmXmXmXmXmX0X*Xs mXmXmXmXmXmXmXmXmXmXmXmXmXmXmXmXmXmXmXmXmXmXmXmXmXmXmXmXmXmXV.mXmXmXmXmXmXmXmXmX",
"mXmXmXmXmXmXmXmXmXmXmXmXmXmXmXmXmXmXmXmXmXmXmXmXmXmXmXmXmXmXmXmXmXmXmXmXmXmXmXmXmXmXmXmXmXmXmXmXmXmXmXmXmXmXmXmXmXmXmXmXmXmXmXmX",
"mXmXmXmXmXmXmXmXmXmXmXmXmXmXmXmXmXmXmXmXmXmXmXmXmXmXmXmXmXmXmXmXmXmXmXmXmXmXmXmXmXmXmXmXmXmXmXmXmXmXmXmXmXmXmXmXmXmXmXmXmXmXmXmX",
"mXmXmXmXmXmXmXmXmXmXmXmXmXmXmXmXmXmXmXmXmXmXmXmXmXmXmXmXmXmXmXmXmXmXmXmXmXmXmXmXmXmXmXmXmXmXmXmXmXmXmXmXmXmXmXmXmXmXmXmXmXmXmXmX",
"mXmXmXmXmXmXmXmXmXmXmXmXmXmXmXmXmXmXmXmXmXmXmXmXmXmXmXmXmXmXmXmXmXmXmXmXmXmXmXmXmXmXmXmXmXmXmXmXmXmXmXmXmXmXmXmXmXmXmXmXmXmXmXmX",
"mXmXmXmXmXmXmXmXmXmXmXmXmXmXmXmXmXmXmXmXmXmXmXmXmXmXmXmXmXmXmXmXmXmXmXmXmXmXmXmXmXmXmXmXmXmXmXmXmXmXmXmXmXmXmXmXmXmXmXmXmXmXmXmX",
"mXmXmXmXmXmXmXmXmXmXmXmXmXmXmXmXmXmXmXmXmXmXmXmXmXmXmXmXmXmXmXmXmXmXmXmXmXmXmXmXmXmXmXmXmXmXmXmXmXmXmXmXmXmXmXmXmXmXmXmXmXmXmXmX",
"mXmXmXmXmXmXmXmXmXmXmXmXmXmXmXmXmXmXmXmXmXmXmXmXmXmXmXmXmXmXmXmXmXmXmXmXmXmXmXmXmXmXmXmXmXmXmXmXmXmXmXmXmXmXmXmXmXmXmXmXmXmXmXmX",
"mXmXmXmXmXmXmXmXmXmXmXmXmXmXmXmXmXmXmXmXmXmXmXmXmXmXmXmXmXmXmXmXmXmXmXmXmXmXmXmXmXmXmXmXmXmXmXmXmXmXmXmXmXmXmXmXmXmXmXmXmXmXmXmX",
"mXmXmXmXmXmXmXmXmXmXmXmXmXmXmXmXmXmXmXmXmXmXmXmXmXmXmXmXmXmXmXmXmXmXmXmXmXmXmXmXmXmXmXmXmXmXmXmXmXmXmXmXmXmXmXmXmXmXmXmXmXmXmXmX",
"mXmXmXmXmXmXmXmXmXmXmXmXmXmXmXmXmXmXmXmXmXmXmXmXmXmXmXmXmXmXmXmXmXmXmXmXmXmXmXmXmXmXmXmXmXmXmXmXmXmXmXmXmXmXmXmXmXmXmXmXmXmXmXmX",
"mXmXmXmXmXmXmXmXmXmXmXmXmXmXmXmXmXmXmXmXmXmXmXmXmXmXmXmXmXmXmXmXmXmXmXmXmXmXmXmXmXmXmXmXmXmXmXmXmXmXmXmXmXmXmXmXmXmXmXmXmXmXmXmX",
"mXmXmXmXmXmXmXmXmXmXmXmXmXmXmXmXmXmXmXmXmXmXmXmXmXmXmXmXmXmXmXmXmXmXmXmXmXmXmXmXmXmXmXmXmXmXmXmXmXmXmXmXmXmXmXmXmXmXmXmXmXmXmXmX",
"mXmXmXmXmXmXmXmXmXmXmXmXmXmXmXmXmXmXmXmXmXmXmXmXmXmXmXmXmXmXmXmXmXmXmXmXmXmXmXmXmXmXmXmXmXmXmXmXmXmXmXmXmXmXmXmXmXmXmXmXmXmXmXmX",
"mXmXmXmXmXmXmXmXmXmXmXmXmXmXmXmXmXmXmXmXmXmXmXmXmXmXmXmXmXmXmXmXmXmXmXmXmXmXmXmXmXmXmXmXmXmXmXmXmXmXmXmXmXmXmXmXmXmXmXmXmXmXmXmX",
"mXmXmXmXmXmXmXmXmXmXmXmXmXmXmXmXmXmXmXmXmXmXmXmXmXmXmXmXmXmXmXmXmXmXmXmXmXmXmXmXmXmXmXmXmXmXmXmXmXmXmXmXmXmXmXmXmXmXmXmXmXmXmXmX",
"mXmXmXmXmXmXmXmXmXmXmXmXmXmXmXmXmXmXmXmXmXmXmXmXmXmXmXmXmXmXmXmXmXmXmXmXmXmXmXmXmXmXmXmXmXmXmXmXmXmXmXmXmXmXmXmXmXmXmXmXmXmXmXmX",
"mXmXmXmXmXmXmXmXmXmXmXmXmXmXmXmXmXmXmXmXmXmXmXmXmXmXmXmXmXmXmXmXmXmXmXmXmXmXmXmXmXmXmXmXmXmXmXmXmXmXmXmXmXmXmXmXmXmXmXmXmXmXmXmX",
"mXmXmXmXmXmXmXmXmXmXmXmXmXmXmXmXmXmXmXmXmXmXmXmXmXmXmXmXmXmXmXmXmXmXmXmXmXmXmXmXmXmXmXmXmXmXmXmXmXmXmXmXmXmXmXmXmXmXmXmXmXmXmXmX",
"mXmXmXmXmXmXmXmXmXmXmXmXmXmXmXmXmXmXmXmXmXmXmXmXmXmXmXmXmXmXmXmXmXmXmXmXmXmXmXmXmXmXmXmXmXmXmXmXmXmXmXmXmXmXmXmXmXmXmXmXmXmXmXmX",
"mXmXmXmXmXmXmXmXmXmXmXmXmXmXmXmXmXmXmXmXmXmXmXmXmXmXmXmXmXmXmXmXmXmXmXmXmXmXmXmXmXmXmXmXmXmXmXmXmXmXmXmXmXmXmXmXmXmXmXmXmXmXmXmX"
};
