/* XPM */
static char *result[] = {
/* columns rows colors chars-per-pixel */
"32 32 174 2 ",
"   c #5B2332",
".  c #77463A",
"X  c #273849",
"o  c #3E2355",
"O  c #373A56",
"+  c #343D5D",
"@  c #3B3068",
"#  c #393D7E",
"$  c #5C1E50",
"%  c #671956",
"&  c #761F58",
"*  c #7B1E5D",
"=  c #48254E",
"-  c #582145",
";  c #5F2445",
":  c #532C51",
">  c #41385A",
",  c #56375B",
"<  c #67254B",
"1  c #6A274D",
"2  c #692655",
"3  c #642D5A",
"4  c #67295D",
"5  c #4D3161",
"6  c #65346D",
"7  c #7B316E",
"8  c #602E76",
"9  c #7A307F",
"0  c #324E6B",
"q  c #35527C",
"w  c #7D505A",
"e  c #7C5F6B",
"r  c #7E657A",
"t  c #872A3E",
"y  c #913034",
"u  c #CC0C3B",
"i  c #D71535",
"p  c #E52B2F",
"a  c #864821",
"s  c #BF532E",
"d  c #CB7A0D",
"f  c #C8721C",
"g  c #DA4F31",
"h  c #F75428",
"j  c #F15F28",
"k  c #EB4332",
"l  c #FC413B",
"z  c #FD5C32",
"x  c #CD6929",
"c  c #DB6822",
"v  c #C1732F",
"b  c #FA6D23",
"n  c #FD6429",
"m  c #FE602C",
"M  c #84104B",
"N  c #9D0B54",
"B  c #851655",
"V  c #BF0843",
"C  c #B90A4F",
"Z  c #A9194C",
"A  c #BC114F",
"S  c #AB1154",
"D  c #AF1A54",
"F  c #A2155B",
"G  c #A01D59",
"H  c #872440",
"J  c #8D294D",
"K  c #80255F",
"L  c #972A5E",
"P  c #9C285B",
"I  c #9B2C58",
"U  c #85375F",
"Y  c #983850",
"T  c #A12D46",
"R  c #B22548",
"E  c #B82E4D",
"W  c #B13540",
"Q  c #BE355F",
"!  c #8A1C66",
"~  c #991761",
"^  c #9F176F",
"/  c #BC1A60",
"(  c #88276E",
")  c #942B6F",
"_  c #AD2B63",
"`  c #B22D63",
"'  c #BE2E67",
"]  c #AC3061",
"[  c #AE3E6D",
"{  c #D3174C",
"}  c #DF194E",
"|  c #CD0254",
" . c #D40C52",
".. c #C71853",
"X. c #CC185D",
"o. c #C3204A",
"O. c #C9254A",
"+. c #C62A4D",
"@. c #DA2F45",
"#. c #C53642",
"$. c #C83C4B",
"%. c #E62243",
"&. c #FE3C42",
"*. c #F32656",
"=. c #D21266",
"-. c #9F4559",
";. c #9C7851",
":. c #8E4B67",
">. c #9D437B",
",. c #996875",
"<. c #C14355",
"1. c #DC4952",
"2. c #F14842",
"3. c #E95440",
"4. c #D37C4A",
"5. c #CE685B",
"6. c #C55D6B",
"7. c #F68F0A",
"8. c #FB8F0F",
"9. c #F79702",
"0. c #FC9B05",
"q. c #F0910E",
"w. c #FEA903",
"e. c #BB8F4E",
"r. c #683B82",
"t. c #2E4180",
"y. c #335A83",
"u. c #365F88",
"i. c #3C698E",
"p. c #277793",
"a. c #396CA7",
"s. c #3272AC",
"d. c #4C448D",
"f. c #504193",
"g. c #57549C",
"h. c #556E96",
"j. c #726188",
"k. c #405AAE",
"l. c #4350B7",
"z. c #4866A3",
"x. c #4B74B7",
"c. c #6A76A2",
"v. c #397ADA",
"b. c #4866C0",
"n. c #995980",
"m. c #2A8DAE",
"M. c #3680B8",
"N. c #3C89BF",
"B. c #36A1B6",
"V. c #5B84B5",
"C. c #7C9DAB",
"Z. c #299DC6",
"A. c #3493C9",
"S. c #3697DB",
"D. c #3DB7CC",
"F. c #31B3D8",
"G. c #32BFDE",
"H. c #3B9FE9",
"J. c #3DBBE6",
"K. c #569AC7",
"L. c #1AC8D7",
"P. c #1EC8D4",
"I. c #06DDD6",
"U. c #18DAD5",
"Y. c #20D4D1",
"T. c #0CE6D4",
"R. c #17E1DC",
"E. c #08FBD9",
"W. c #08F9DD",
"Q. c #28C6E1",
"!. c #33D7E8",
"~. c #1BE3EF",
"^. c #28F0F5",
"/. c None",
/* pixels */
"/./././././././././././././././././././././././././././././././.",
"/./././././././././././././././././././././././././././././././.",
"/./././././././././././././././././././././././././././././././.",
"/./././././././././././././././././././././././././././././././.",
"/./././././././././././././././././././././././././././././././.",
"/./././././././././././././././././././././././././././././././.",
"/./././././././././././././././././././././././././././././././.",
"/./././././.g /././././././././.w././././././././././././.Q 4./.",
"/././././.#.s 2 /./././././.c 8.0.9.d a   y /./././././.O.k 6./.",
"/./././.T W Y U t P /././.) -.v q.7.f . = /./././././.E %.2././.",
"/./.4 : w /./././.R /./.l.f.;.x /./././././././././.J I @._ /./.",
"/./.5 7 :./././.M A /././.,.e././././././././././.1 , D ` /././.",
"/././.g./././.% N /./././.C.e /./././././././././.> /./ 9 /././.",
"/./.8 r./.o $ K >./././.c.V.' *. .| /./././././.+ X /.^ d./././.",
"/.H < ; - 3 h./././././.K.a.[ /./././././././.0 O /.S F G L j./.",
"/.! B Z ( /././././././.G./././././././././.+.o.{ } ..] /./././.",
"/.t.& j X././././././.!.L././././././.&.l 1.r /././.C <././././.",
"/.@ ~ /.n.6 /././././.^.I./././././.$.5./.U.p./././.V 3././././.",
"/.* /././.b.q /./././.D.B.Y.W.T.Z.k.# /./.P././././.u z /./././.",
"/.=././././.v.s.u./.z.x.F.R.E./././././.~.m././././.i m /./././.",
"/././././././.H.S.M.A.i././././././././.Q./././././.p n /./././.",
"/././././././././.J.N.y././././././././././././././.h b /./././.",
"/./././././././././././././././././././././././././././././././.",
"/./././././././././././././././././././././././././././././././.",
"/./././././././././././././././././././././././././././././././.",
"/./././././././././././././././././././././././././././././././.",
"/./././././././././././././././././././././././././././././././.",
"/./././././././././././././././././././././././././././././././.",
"/./././././././././././././././././././././././././././././././.",
"/./././././././././././././././././././././././././././././././.",
"/./././././././././././././././././././././././././././././././.",
"/./././././././././././././././././././././././././././././././."
};
