/* XPM */
static char *result[] = {
/* columns rows colors chars-per-pixel */
"16 16 49 1 ",
"  c #6D273C",
". c #3A3756",
"X c #7D1E4C",
"o c #6A2057",
"O c #602E5F",
"+ c #673060",
"@ c #5D627B",
"# c #E53334",
"$ c #E5363F",
"% c #A55F1F",
"& c #F45029",
"* c #CC6D30",
"= c #A11746",
"- c #B01C59",
"; c #963C4A",
": c #802A53",
"> c #8B2A56",
", c #982051",
"< c #982351",
"1 c #963255",
"2 c #AA384B",
"3 c #B33143",
"4 c #B52F5D",
"5 c #981C68",
"6 c #A71B63",
"7 c #9D2864",
"8 c #9A366E",
"9 c #C60752",
"0 c #C7284A",
"q c #C33561",
"w c #8D4C57",
"e c #B47B45",
"r c #B66C6D",
"t c #DD4E4F",
"y c #F69408",
"u c #653A81",
"i c #3567A6",
"p c #3778A7",
"a c #615397",
"s c #717EA4",
"d c #4688B9",
"f c #328EC3",
"g c #3A96C3",
"h c #389BD3",
"j c #1FC5D5",
"k c #11D0D6",
"l c #29C0CD",
"z c #0AF3D9",
"x c None",
/* pixels */
"xxxxxxxxxxxxxxxx",
"xxxxxxxxxxxxxxxx",
"xxxxxxxxxxxxxxxx",
"xxxxxxxxxxxxxxxx",
"xx3;:xx*y% xxx$x",
"xOwx=xaexxxxx>4x",
"xuxoxxsq9xxx.6xx",
",X+xxxgxxxx1<-7x",
"x28xxxkxxtr@x0xx",
"5xxixdlzfxjxx#xx",
"xxxxhpxxxxxxx&xx",
"xxxxxxxxxxxxxxxx",
"xxxxxxxxxxxxxxxx",
"xxxxxxxxxxxxxxxx",
"xxxxxxxxxxxxxxxx",
"xxxxxxxxxxxxxxxx"
};
